<svg width="52" height="48" viewBox="0 0 52 48" fill="none" xmlns="http://www.w3.org/2000/svg">
<path d="M6.21716 42.7247C2.09332 39.0823 0 32.8023 0 23.7801C0 14.8626 2.09332 8.66634 6.21716 5.21237C10.4247 1.75839 16.9768 0 25.8106 0C34.8119 0 41.364 1.75839 45.4669 5.21237C49.6745 8.66634 51.7678 14.8416 51.7678 23.7801C51.7678 32.8023 49.6745 39.0823 45.4669 42.7037C41.3431 46.2414 34.791 47.9998 25.8106 47.9998C16.8931 48.0208 10.341 46.2414 6.21716 42.7247Z" fill="#E51E3A"/>
<path d="M28.26 32.7185C25.0153 33.6396 21.3729 34.1001 17.3956 34.1001C13.6486 34.1001 11.1575 33.7024 9.83876 32.8441C8.56183 31.9859 7.93384 30.2903 7.93384 27.7992C7.93384 25.1617 8.64557 23.5289 10.1946 22.6706C11.7855 21.8123 13.4811 21.603 16.3071 21.603C17.3747 21.603 19.175 21.7495 21.7079 22.0426C21.5613 19.7609 21.3102 19.4678 16.4118 19.3422C14.151 19.3422 11.8483 19.5934 9.52476 20.1168L8.64557 14.7788C11.5343 14.2136 14.8627 13.9205 18.5679 13.9205C25.3503 13.9205 28.2809 15.8883 28.2809 21.3518V32.7185H28.26ZM21.7079 26.2293C20.6194 26.1246 19.4471 26.0409 18.212 26.0409C16.9142 26.0409 16.0559 26.1455 15.6791 26.3339C15.3233 26.5223 15.1558 26.92 15.1558 27.5899C15.1558 28.9296 15.5535 29.1808 18.0864 29.1808C19.175 29.1808 20.3891 29.0343 21.7288 28.7622V26.2293H21.7079ZM31.4418 29.8716L38.1614 24.0941L31.4418 18.2118L34.3306 14.0252L45.6136 22.6706V25.4129L34.3725 34.0164L31.4418 29.8716Z" fill="white"/>
</svg>
