<svg width="15" height="18" viewBox="0 0 15 18" fill="none" xmlns="http://www.w3.org/2000/svg">
<path d="M6 0C5.6085 0 5.205 0.13875 4.9215 0.42225C4.63875 0.705 4.5 1.1085 4.5 1.5V2.25H0V3.75H0.75V15.75C0.75 16.9837 1.76625 18 3 18H12C13.2338 18 14.25 16.9837 14.25 15.75V3.75H15V2.25H10.5V1.5C10.5 1.1085 10.3612 0.705 10.0778 0.4215C9.795 0.1395 9.39225 0 9 0H6ZM6 1.5H9V2.25H6V1.5ZM2.25 3.75H12.75V15.75C12.75 16.1663 12.4163 16.5 12 16.5H3C2.58375 16.5 2.25 16.1663 2.25 15.75V3.75ZM3.75 6V14.25H5.25V6H3.75ZM6.75 6V14.25H8.25V6H6.75ZM9.75 6V14.25H11.25V6H9.75Z" fill="#2B2829"/>
</svg>
